<svg width="50" height="50" viewBox="0 0 50 50" fill="none" xmlns="http://www.w3.org/2000/svg">
<path fill-rule="evenodd" clip-rule="evenodd" d="M8.32115 0L12.5311 4.03233C12.4555 4.02314 12.3792 4.01848 12.3023 4.01848C10.4509 4.01848 8.92153 6.72419 8.68456 10.2308L8.32115 0ZM11.8192 18.2829C10.0319 17.819 8.65268 14.8165 8.65268 11.1818C8.65268 10.8594 8.66353 10.542 8.68456 10.2308L8.76079 12.3772L14.0022 5.4413L12.5311 4.03233C14.36 4.25439 15.8242 7.11998 15.944 10.706C13.7632 11.286 12.0548 14.3977 11.8192 18.2829ZM14.4417 26.8479C12.8676 25.4196 11.7914 22.5331 11.7914 19.2047C11.7914 18.8933 11.8008 18.5858 11.8192 18.2829C11.9773 18.324 12.1385 18.3451 12.3023 18.3451C14.318 18.3451 15.9519 15.138 15.9519 11.1818C15.9519 11.0219 15.9493 10.8632 15.944 10.706C16.1847 10.6419 16.4311 10.6088 16.6819 10.6088C18.722 10.6088 20.4704 12.8045 21.2038 15.9249C17.6149 16.2277 14.724 20.9274 14.4417 26.8479ZM17.7174 27.6077C17.3836 27.7341 17.0372 27.8007 16.6819 27.8007C15.8745 27.8007 15.1129 27.4569 14.4417 26.8479C14.4267 27.1621 14.4191 27.4798 14.4191 27.8005C14.4191 34.3678 17.6217 39.6916 21.5724 39.6916C23.2718 39.6916 24.8328 38.7064 26.0601 37.061C26.6872 39.2308 27.8748 40.6947 29.2366 40.6947C30.2881 40.6947 31.2357 39.8219 31.9017 38.4254C32.3769 38.8699 32.9087 39.1188 33.4702 39.1188C35.2705 39.1188 36.7664 36.5601 37.0654 33.1945C38.0338 32.406 38.7257 30.3208 38.7257 27.8724C38.7257 26.5281 38.5171 25.2933 38.1687 24.3225L40.4857 12.2777C40.5532 12.3104 40.6238 12.3278 40.6965 12.3278C41.1802 12.3278 41.5724 11.5581 41.5724 10.6086C41.5724 9.6591 41.1802 8.88939 40.6965 8.88939C40.2127 8.88939 39.8206 9.6591 39.8206 10.6086C39.8206 10.7074 39.8248 10.8043 39.833 10.8986L37.5019 23.0172C37.1236 22.5068 36.6808 22.2134 36.2075 22.2134C35.9979 22.2134 35.7944 22.2709 35.5998 22.3792L35.806 11.1828L34.8085 11.112L34.5895 23.002L34.9076 23.0245C34.5664 23.4876 34.278 24.1274 34.0676 24.8876C33.8732 24.8248 33.6736 24.7921 33.4702 24.7921C33.3948 24.7921 33.32 24.7966 33.2458 24.8054C32.6269 22.5782 31.4231 21.0671 30.0396 21.0671C29.2574 21.0671 28.5326 21.5501 27.9386 22.3724C26.7521 18.5347 24.3467 15.9094 21.5724 15.9094C21.4488 15.9094 21.3259 15.9146 21.2038 15.9249C21.4413 16.9356 21.5724 18.0432 21.5724 19.2047C21.5724 19.8453 21.5325 20.4694 21.457 21.07C21.4226 21.0681 21.3881 21.0671 21.3534 21.0671C19.4447 21.0671 17.8782 23.9431 17.7174 27.6077ZM23.5244 33.9891C22.9177 34.8718 22.1666 35.3938 21.3534 35.3938C19.3378 35.3938 17.7038 32.1866 17.7038 28.2305C17.7038 28.0206 17.7084 27.8129 17.7174 27.6077C19.5787 26.9024 21.046 24.3351 21.457 21.07C22.5355 21.1289 23.4971 22.1064 24.1459 23.618C23.2488 24.9231 22.6673 27.0166 22.6673 29.3767C22.6673 31.1337 22.9896 32.743 23.5244 33.9891ZM25.9134 36.4967C25.9582 36.6895 26.0071 36.8778 26.0601 37.061C26.1853 36.893 26.3071 36.7183 26.4251 36.5369C27.2758 36.4883 28.0534 35.8684 28.6619 34.8659C29.087 35.2062 29.5521 35.3938 30.0396 35.3938C30.1149 35.3938 30.1897 35.3893 30.264 35.3805C30.6317 36.7039 31.206 37.7744 31.9017 38.4254C32.5124 37.1448 32.8863 35.4238 32.8863 33.5314C32.8863 33.272 32.8793 33.0159 32.8656 32.7637C33.3803 31.5288 33.6892 29.9504 33.6892 28.2305C33.6892 26.9899 33.5285 25.8229 33.2458 24.8054C32.2843 24.9199 31.4234 25.765 30.8051 27.0614C30.4453 26.7248 30.0531 26.5005 29.6401 26.4113C29.3291 25.0709 28.8139 23.9517 28.1724 23.2069C28.1008 22.923 28.0228 22.6446 27.9386 22.3724C27.8546 22.4887 27.7731 22.6118 27.6946 22.7413C27.2695 22.4009 26.8043 22.2134 26.3169 22.2134C25.5037 22.2134 24.7526 22.7354 24.1459 23.618C24.6808 24.8642 25.0031 26.4734 25.0031 28.2305C25.0031 30.5905 24.4216 32.6841 23.5244 33.9891C24.1124 35.3591 24.9573 36.2904 25.9134 36.4967ZM26.4106 28.9982C26.3969 28.7459 26.3899 28.4898 26.3899 28.2305C26.3899 26.0267 26.897 24.0553 27.6946 22.7413C27.8603 22.874 28.0199 23.0299 28.1724 23.2069C28.4289 24.2241 28.6028 25.3131 28.6801 26.4508C27.769 26.7244 26.9688 27.6594 26.4106 28.9982ZM27.7478 33.8057C27.3893 34.8222 26.9426 35.7423 26.4251 36.5369C26.3892 36.539 26.3531 36.54 26.3169 36.54C26.1805 36.54 26.0459 36.5253 25.9134 36.4967C25.7038 35.5931 25.587 34.589 25.587 33.5314C25.587 31.8114 25.8959 30.233 26.4106 28.9982C26.5159 30.9364 27.0149 32.6437 27.7478 33.8057ZM27.7478 33.8057C28.3693 32.0432 28.7257 29.991 28.7257 27.8005C28.7257 27.3441 28.7102 26.8938 28.6801 26.4508C28.8616 26.3963 29.0474 26.368 29.2366 26.368C29.373 26.368 29.5076 26.3827 29.6401 26.4113C29.8498 27.3149 29.9665 28.319 29.9665 29.3767C29.9665 29.6054 29.9611 29.8317 29.9504 30.055C29.8952 30.4498 29.8567 30.8582 29.8367 31.2772C29.6379 32.6991 29.2214 33.9442 28.6619 34.8659C28.33 34.6001 28.0225 34.2412 27.7478 33.8057ZM29.8367 31.2772C29.8919 30.8823 29.9303 30.4739 29.9504 30.055C30.1092 28.9195 30.4068 27.8968 30.8051 27.0614C31.924 28.1082 32.7286 30.2402 32.8656 32.7637C32.2405 34.2629 31.312 35.2557 30.264 35.3805C29.9812 34.363 29.8206 33.196 29.8206 31.9554C29.8206 31.7267 29.826 31.5004 29.8367 31.2772ZM34.9076 23.0245L35.587 23.0727L35.5998 22.3792C35.3526 22.5168 35.1199 22.7365 34.9076 23.0245ZM39.833 10.8986L39.893 10.5863L40.6965 11.1817L40.4857 12.2777C40.1505 12.1151 39.8914 11.5739 39.833 10.8986ZM37.5019 23.0172C37.757 23.3614 37.9828 23.8044 38.1687 24.3225L37.9958 25.2218L37.1923 24.6264L37.5019 23.0172ZM34.0676 24.8876C35.799 25.4471 37.1198 28.3985 37.1198 31.9554C37.1198 32.378 37.1012 32.792 37.0654 33.1945C36.7976 33.4125 36.5087 33.5314 36.2075 33.5314C34.8167 33.5314 33.6892 30.9978 33.6892 27.8724C33.6892 26.7769 33.8277 25.7541 34.0676 24.8876ZM36.2439 11.1819C36.7277 11.1819 37.1198 10.4121 37.1198 9.46266C37.1198 8.51317 36.7277 7.74346 36.2439 7.74346C35.7602 7.74346 35.368 8.51317 35.368 9.46266C35.368 10.4121 35.7602 11.1819 36.2439 11.1819ZM25 49.9999C38.8071 49.9999 50 47.9152 50 45.3437C50 42.7722 38.8071 40.6876 25 40.6876C11.1929 40.6876 0 42.7722 0 45.3437C0 47.9152 11.1929 49.9999 25 49.9999Z" fill="white"/>
</svg>
